<?xml version="1.0" encoding="utf-8"?>
<!-- Generator: Adobe Illustrator 18.1.0, SVG Export Plug-In . SVG Version: 6.00 Build 0)  -->
<svg version="1.1" id="Touch_ID" xmlns="http://www.w3.org/2000/svg" xmlns:xlink="http://www.w3.org/1999/xlink" x="0px" y="0px"
	 viewBox="0 0 210 210" enable-background="new 0 0 210 210" xml:space="preserve">
<g id="Large">
	<g>
		<path fill="none" stroke="#929292" stroke-width="8" stroke-linecap="round" stroke-miterlimit="10" d="M13.9,78.9
			C11.4,87.5,10,96.6,10,106c0,10.6,1.7,20.8,4.9,30.4"/>
		<path fill="none" stroke="#929292" stroke-width="8" stroke-linecap="round" stroke-miterlimit="10" d="M104.9,10
			c-37.5,0.4-69.9,22.3-85.3,54"/>
		<path fill="none" stroke="#929292" stroke-width="8" stroke-linecap="round" stroke-miterlimit="10" d="M202,103.3
			c-1.3-46.7-36-85.1-81.1-92.1"/>
		<path fill="none" stroke="#929292" stroke-width="8" stroke-linecap="round" stroke-miterlimit="10" d="M100.3,188
			c-1.9,5.3-3.8,9.8-5.5,13.4"/>
		<path fill="none" stroke="#929292" stroke-width="8" stroke-linecap="round" stroke-miterlimit="10" d="M106,106
			c0,0,6.3,25.3,1.6,54.2c-0.7,4.3-1.6,8.5-2.6,12.5"/>
		<path fill="none" stroke="#929292" stroke-width="8" stroke-linecap="round" stroke-miterlimit="10" d="M124.4,154.7
			c-0.2,1.8-0.5,3.6-0.8,5.5c-2.9,18-8,33.1-11.5,41.8"/>
		<path fill="none" stroke="#929292" stroke-width="8" stroke-linecap="round" stroke-miterlimit="10" d="M78.3,197.9
			c4.5-8.9,10.1-22.1,12.8-37.7c4-23,0.5-44-0.8-51.4c-0.2-0.9-0.3-1.9-0.3-2.8c0-8.8,7.2-16,16-16c7.6,0,13.9,5.3,15.6,12.4
			c0,0,3.7,16.2,3.7,36.4"/>
		<path fill="none" stroke="#929292" stroke-width="8" stroke-linecap="round" stroke-miterlimit="10" d="M188.8,134.8
			c0.1,6.4,0,13.3-0.4,20.4"/>
		<path fill="none" stroke="#929292" stroke-width="8" stroke-linecap="round" stroke-miterlimit="10" d="M74.6,32.4
			C84.3,28.3,94.9,26,106,26c40.4,0,73.9,30.1,79.3,69c0,0,1.7,9.3,2.8,23.7"/>
		<path fill="none" stroke="#929292" stroke-width="8" stroke-linecap="round" stroke-miterlimit="10" d="M25.7,158.6
			c1-2.4,1.8-5,2.4-7.8c2.3-9.9,0.4-23.9-1-31.5C26.4,115,26,110.5,26,106c0-27.4,13.7-51.5,34.7-65.9"/>
		<path fill="none" stroke="#929292" stroke-width="8" stroke-linecap="round" stroke-miterlimit="10" d="M121.9,44
			c-5.1-1.3-10.4-2-15.9-2c-35.3,0-64,28.7-64,64c0,3.3,0.3,6.6,0.7,9.8c1.5,8.4,3.5,22.6,0.9,36.9c-1.4,7.6-3.9,14.3-6.7,20"/>
		<path fill="none" stroke="#929292" stroke-width="8" stroke-linecap="round" stroke-miterlimit="10" d="M169.8,177.7
			c0.6-3.3,1.1-6.8,1.5-10.3c4.7-36.9-2.1-71-2.1-71c-3-20.1-15.4-37.1-32.5-46.5"/>
		<path fill="none" stroke="#929292" stroke-width="8" stroke-linecap="round" stroke-miterlimit="10" d="M151.5,90.7
			c0.6,1.8,1.1,3.7,1.5,5.6c1.9,9.8,5.9,34,3.2,60.8c-1.3,12.9-3.6,24.5-6.1,34.1"/>
		<path fill="none" stroke="#929292" stroke-width="8" stroke-linecap="round" stroke-miterlimit="10" d="M60.3,148
			c2-18.3-1.4-32.6-1.4-32.6c-0.6-3-0.9-6.2-0.9-9.4c0-26.5,21.5-48,48-48c15.4,0,29.1,7.3,37.9,18.5"/>
		<path fill="none" stroke="#929292" stroke-width="8" stroke-linecap="round" stroke-miterlimit="10" d="M49.4,183.6
			c2.9-5.6,5.8-12.3,7.9-19.9"/>
		<path fill="none" stroke="#929292" stroke-width="8" stroke-linecap="round" stroke-miterlimit="10" d="M95,75.9
			c3.4-1.3,7.1-1.9,11-1.9c15.4,0,28.3,10.9,31.3,25.4c1.7,8.2,5.8,31.7,2.9,58.1c-1.9,16.7-5.8,31.2-9.3,41.3"/>
		<path fill="none" stroke="#929292" stroke-width="8" stroke-linecap="round" stroke-miterlimit="10" d="M63.4,192.1
			c4.8-9.1,9.7-21,11.8-34.1c3.1-19.8,0.8-37.5-0.7-46.3c-0.4-1.9-0.5-3.7-0.5-5.8c0-8.1,3-15.5,7.9-21.1"/>
	</g>
</g>
</svg>
